<svg width="18" height="18" viewBox="0 0 18 18" fill="none" xmlns="http://www.w3.org/2000/svg"><path d="M12.4979 9.57925C12.1724 9.90515 12.1724 10.4335 12.4979 10.7594C12.8234 11.0853 13.3512 11.0853 13.6767 10.7594L12.4979 9.57925ZM7.33932 4.41446C7.0138 4.74036 7.01381 5.26875 7.33932 5.59465C7.66483 5.92055 8.19258 5.92055 8.51809 5.59465L7.33932 4.41446ZM14.5407 7.53404L12.4979 9.57925L13.6767 10.7594L15.7195 8.71423L14.5407 7.53404ZM8.51809 5.59465L10.5609 3.54944L9.38208 2.36925L7.33932 4.41446L8.51809 5.59465ZM14.5407 3.54944C15.6397 4.64976 15.6397 6.43372 14.5407 7.53404L15.7195 8.71423C17.4695 6.96211 17.4695 4.12137 15.7195 2.36925L14.5407 3.54944ZM15.7195 2.36925C13.9695 0.617137 11.1321 0.617137 9.38208 2.36925L10.5609 3.54944C11.6599 2.44912 13.4417 2.44912 14.5407 3.54944L15.7195 2.36925Z" fill="#C1CEF1"></path><path d="M9.57803 12.5037C9.90354 12.1778 10.4313 12.1778 10.7568 12.5037C11.0823 12.8296 11.0823 13.358 10.7568 13.6839L9.57803 12.5037ZM4.41941 7.33894C4.74492 7.01304 5.27267 7.01304 5.59818 7.33894C5.92369 7.66484 5.9237 8.19323 5.59818 8.51913L4.41941 7.33894ZM7.53526 14.5489L9.57803 12.5037L10.7568 13.6839L8.71404 15.7291L7.53526 14.5489ZM5.59818 8.51913L3.55541 10.5643L2.37664 9.38416L4.41941 7.33894L5.59818 8.51913ZM3.55542 14.5489C4.65442 15.6493 6.43626 15.6493 7.53526 14.5489L8.71404 15.7291C6.96401 17.4812 4.12666 17.4812 2.37664 15.7291L3.55542 14.5489ZM2.37664 15.7291C0.626617 13.977 0.626614 11.1363 2.37664 9.38416L3.55541 10.5643C2.45641 11.6647 2.45641 13.4486 3.55542 14.5489L2.37664 15.7291Z" fill="#C1CEF1"></path><path d="M11.5801 6.51562L6.51983 11.582" stroke="#C1CEF1" stroke-width="2" stroke-linecap="round"></path></svg>