<svg width="21px" height="18px" viewBox="0 0 21 18" fill="#C1CEF1" xmlns="http://www.w3.org/2000/svg"><path fill-rule="evenodd" clip-rule="evenodd" d="M2.17928 7.39032C7.22303 5.24376 10.5863 3.82862 12.2692 3.14489C17.074 1.19272 18.0724 0.853602 18.7231 0.842405C18.8662 0.839942 19.1863 0.87459 19.3936 1.0389C19.5686 1.17763 19.6168 1.36505 19.6398 1.49659C19.6628 1.62812 19.6915 1.92777 19.6687 2.16191C19.4084 4.83429 18.2817 11.3195 17.7085 14.3126C17.466 15.5791 16.9885 16.0037 16.5261 16.0453C15.5214 16.1356 14.7585 15.3967 13.7853 14.7735C12.2626 13.7985 11.4023 13.1915 9.9242 12.24C8.216 11.1404 9.32336 10.5361 10.2969 9.5484C10.5516 9.28992 14.9785 5.35665 15.0642 4.99984C15.0749 4.95522 15.0848 4.78888 14.9837 4.70104C14.8825 4.61321 14.7332 4.64324 14.6255 4.66713C14.4727 4.70099 12.0401 6.27161 7.32757 9.37898C6.63707 9.84214 6.01165 10.0678 5.45128 10.056C4.83353 10.0429 3.64522 9.71478 2.76183 9.43429C1.67832 9.09024 0.817169 8.90834 0.892156 8.32405C0.931214 8.01971 1.36026 7.70847 2.17928 7.39032Z" fill=""></path></svg>