<svg width="133" height="31" viewBox="0 0 133 31" fill="none" xmlns="http://www.w3.org/2000/svg"><path fill-rule="evenodd" clip-rule="evenodd" d="M38.1716 26.6441C38.0284 26.477 37.8374 26.3934 37.5987 26.3934H28.0747V21.9537H34.8776C35.1163 21.9537 35.3072 21.8821 35.4505 21.7388C35.5937 21.5717 35.6653 21.3808 35.6653 21.166V19.0535C35.6653 18.8387 35.5937 18.6596 35.4505 18.5164C35.3072 18.3493 35.1163 18.2658 34.8776 18.2658H28.0747V13.7902H37.5987C37.8374 13.7902 38.0284 13.7186 38.1716 13.5754C38.3148 13.4083 38.3864 13.2174 38.3864 13.0025V10.711C38.3864 10.4962 38.3148 10.3172 38.1716 10.174C38.0284 10.0069 37.8374 9.92334 37.5987 9.92334H24.7807C24.5659 9.92334 24.3749 10.0069 24.2078 10.174C24.0407 10.3172 23.9572 10.5081 23.9572 10.7468V29.4368C23.9572 29.6755 24.0407 29.8784 24.2078 30.0455C24.3749 30.1887 24.5659 30.2603 24.7807 30.2603H37.5987C37.8374 30.2603 38.0284 30.1887 38.1716 30.0455C38.3148 29.8784 38.3864 29.6874 38.3864 29.4726V27.1811C38.3864 26.9663 38.3148 26.7873 38.1716 26.6441ZM58.2452 30.1669C58.4036 29.9988 58.4828 29.7947 58.4828 29.5546V10.7518C58.4828 10.5117 58.4036 10.3196 58.2452 10.1755C58.0868 10.0074 57.9057 9.92334 57.702 9.92334H55.3596C55.1559 9.92334 54.9748 10.0074 54.8164 10.1755C54.6579 10.3196 54.5787 10.5117 54.5787 10.7518V22.8548L47.2119 10.4997C47.144 10.3556 47.0421 10.2235 46.9063 10.1034C46.7932 9.98337 46.6461 9.92334 46.465 9.92334H43.9189C43.7152 9.92334 43.5341 10.0074 43.3757 10.1755C43.2172 10.3196 43.138 10.5117 43.138 10.7518V29.5546C43.138 29.7947 43.2172 29.9988 43.3757 30.1669C43.5341 30.311 43.7152 30.3831 43.9189 30.3831H46.2613C46.465 30.3831 46.6461 30.311 46.8045 30.1669C46.9629 29.9988 47.0421 29.7947 47.0421 29.5546V17.4156L54.2732 29.5546C54.3864 29.7467 54.5561 29.9388 54.7824 30.1309C55.0088 30.299 55.2238 30.3831 55.4275 30.3831H57.702C57.9057 30.3831 58.0868 30.311 58.2452 30.1669ZM67.7154 29.4368C67.7154 29.6755 67.6318 29.8784 67.4647 30.0455C67.2976 30.1887 67.1067 30.2603 66.8919 30.2603H64.4213C64.2065 30.2603 64.0156 30.1887 63.8485 30.0455C63.6814 29.8784 63.5978 29.6755 63.5978 29.4368V10.7468C63.5978 10.5081 63.6814 10.3172 63.8485 10.174C64.0156 10.0069 64.2065 9.92334 64.4213 9.92334H66.8919C67.1067 9.92334 67.2976 10.0069 67.4647 10.174C67.6318 10.3172 67.7154 10.5081 67.7154 10.7468V29.4368ZM75.616 27.9406C76.808 29.5689 78.7695 30.3831 81.5003 30.3831C84.2312 30.3831 86.1926 29.5689 87.3847 27.9406C88.5767 26.3124 89.1727 24.0351 89.1727 21.1089V10.7375C89.1727 10.5015 89.0968 10.3127 88.9451 10.1711C88.7934 10.0059 88.62 9.92334 88.425 9.92334H86.1818C85.9867 9.92334 85.8133 10.0059 85.6616 10.1711C85.5099 10.3127 85.434 10.5015 85.434 10.7375V20.8612C85.434 21.7815 85.3799 22.6074 85.2715 23.339C85.1848 24.0705 85.0006 24.6959 84.7188 25.215C84.4371 25.7106 84.0361 26.1 83.5159 26.3832C83.0174 26.6663 82.3456 26.8079 81.5003 26.8079C80.655 26.8079 79.9723 26.6663 79.4522 26.3832C78.9537 26.1 78.5636 25.7106 78.2818 25.215C78.0001 24.6959 77.805 24.0705 77.6966 23.339C77.6099 22.6074 77.5666 21.7815 77.5666 20.8612V10.7375C77.5666 10.5015 77.4907 10.3127 77.339 10.1711C77.1873 10.0059 77.0139 9.92334 76.8188 9.92334H74.5756C74.3806 9.92334 74.2072 10.0059 74.0555 10.1711C73.9038 10.3127 73.8279 10.5015 73.8279 10.7375V21.1089C73.8279 24.0351 74.4239 26.3124 75.616 27.9406ZM11.7753 10.0002L11.7525 10.1215C12.1759 10.4054 12.4183 10.919 12.3305 11.4549L12.154 12.5326C12.0611 13.1001 11.6252 13.5258 11.0929 13.6327L11.0769 13.718C10.8777 13.7012 10.6709 13.6927 10.4566 13.6927C9.53089 13.6927 8.68077 13.8628 7.9062 14.2028C7.15053 14.5429 6.49877 15.0057 5.95091 15.5914C5.40304 16.1581 4.97798 16.8382 4.67571 17.6317C4.37344 18.4062 4.22231 19.2469 4.22231 20.1537C4.22231 21.0605 4.37344 21.9107 4.67571 22.7041C4.99687 23.4787 5.44083 24.1588 6.00758 24.7444C6.57433 25.3112 7.24499 25.7646 8.01955 26.1046C8.79412 26.4447 9.64424 26.6147 10.5699 26.6147C11.2312 26.6147 11.8546 26.5297 12.4402 26.3597C13.0448 26.1708 13.5926 25.8968 14.0838 25.5379C14.575 25.1789 14.9906 24.7444 15.3307 24.2343C15.6896 23.7243 15.9352 23.1386 16.0674 22.4774H15.6904V22.4943H13.7745C12.7912 22.4943 11.9942 21.6972 11.9942 20.714C11.9942 19.7307 12.7912 18.9336 13.7745 18.9336H15.6904V18.9352H19.2129C19.553 18.9352 19.8458 19.058 20.0914 19.3036C20.337 19.5492 20.4598 19.842 20.4598 20.1821C20.4598 21.6178 20.2142 22.9592 19.723 24.206C19.2318 25.434 18.5423 26.5108 17.6544 27.4365C16.7853 28.3433 15.7368 29.0612 14.5089 29.5902C13.2998 30.1191 11.9679 30.3836 10.5133 30.3836C9.07749 30.3836 7.71729 30.1286 6.43264 29.6185C5.1669 29.0895 4.05228 28.3716 3.0888 27.4648C2.14421 26.5391 1.38854 25.4529 0.821792 24.206C0.273931 22.9592 0 21.6084 0 20.1537C0 18.6991 0.273931 17.3483 0.821792 16.1014C1.36965 14.8546 2.11588 13.7778 3.06047 12.8709C4.02395 11.9453 5.13856 11.2274 6.40431 10.7173C7.67006 10.1883 9.02082 9.92384 10.4566 9.92384C10.8993 9.92384 11.3388 9.94929 11.7753 10.0002ZM102.768 23.4296C102.512 23.0847 102.05 22.7398 101.371 22.4087L96.8976 20.2703C95.6159 19.6495 95.0491 18.9848 94.5847 18.1722C94.1202 17.3595 93.847 16.3386 93.847 15.0693C93.847 13.4276 94.4366 12.1583 95.603 11.2616C96.7694 10.3648 98.3716 9.92334 100.397 9.92334C102.384 9.92334 104.793 10.5026 106.754 11.6753C107.241 11.965 107.344 12.3789 107.075 12.9169L106.383 14.269C106.113 14.7932 105.729 14.9036 105.229 14.6001C103.64 13.6481 101.73 13.1654 100.358 13.1516C99.5765 13.1516 98.9484 13.3172 98.487 13.6483C98.0256 13.9794 97.7948 14.4761 97.7948 15.1383C97.7948 15.6488 97.9487 16.0902 98.2435 16.4627C98.5383 16.8352 99.0253 17.1939 99.6918 17.525L103.537 19.6357C104.819 20.2565 105.729 20.9601 106.267 21.7603C106.806 22.5605 107.075 23.609 107.075 24.892C107.075 26.6165 106.472 27.9686 105.28 28.9343C104.088 29.9 102.384 30.3829 100.166 30.3829C97.7692 30.3829 95.5389 29.7207 93.4625 28.41C92.9883 28.1065 92.8857 27.6926 93.1549 27.1684L93.847 25.8026C94.1162 25.2645 94.5007 25.1541 95.0006 25.4577C96.8592 26.5889 98.5639 27.1546 100.128 27.1546C101.063 27.1546 101.807 26.9476 102.345 26.5476C102.883 26.1475 103.153 25.568 103.153 24.823C103.153 24.2436 103.024 23.7745 102.768 23.4296Z" fill="white"></path><path d="M122.919 3.38265L121.07 1.11138C120.72 0.681605 120.195 0.432158 119.641 0.432158H116.42C115.799 0.432158 115.456 1.15317 115.849 1.63477L120.096 6.85036L122.919 3.38265Z" fill="url(#paint0_linear_4403_172)"></path><path d="M124.821 12.6529L126.67 14.9236C127.02 15.3533 127.544 15.6028 128.099 15.6028H131.319C131.94 15.6028 132.283 14.8818 131.891 14.4002L127.644 9.18521L124.821 12.6529Z" fill="url(#paint1_linear_4403_172)"></path><path d="M126.67 1.11135C127.02 0.681576 127.545 0.432129 128.099 0.432129H131.32C131.941 0.432129 132.284 1.15314 131.892 1.63474L121.07 14.9235C120.721 15.3533 120.196 15.6028 119.641 15.6028H116.421C115.8 15.6028 115.457 14.8818 115.849 14.4001L126.67 1.11135Z" fill="url(#paint2_linear_4403_172)"></path><defs><linearGradient id="paint0_linear_4403_172" x1="115.682" y1="1.01862" x2="133.099" y2="17.2088" gradientUnits="userSpaceOnUse"><stop stop-color="#FFB35A"></stop><stop offset="1" stop-color="#FF145B"></stop></linearGradient><linearGradient id="paint1_linear_4403_172" x1="115.682" y1="1.01862" x2="133.099" y2="17.2088" gradientUnits="userSpaceOnUse"><stop stop-color="#FFB35A"></stop><stop offset="1" stop-color="#FF145B"></stop></linearGradient><linearGradient id="paint2_linear_4403_172" x1="115.682" y1="1.01862" x2="133.099" y2="17.2088" gradientUnits="userSpaceOnUse"><stop stop-color="#FFB35A"></stop><stop offset="1" stop-color="#FF145B"></stop></linearGradient></defs></svg>